<?xml version="1.0" encoding="UTF-8"?>
<svg id="Layer_2" data-name="Layer 2" xmlns="http://www.w3.org/2000/svg" viewBox="0 0 295.8 295.75">
  <defs>
    <style>
      .cls-1 {
        fill: #053f5c;
      }
    </style>
  </defs>
  <g id="Layer_1-2" data-name="Layer 1">
    <path class="cls-1" d="M119.05,237.98c26.44,0,52.12-8.82,72.98-25.07l78.69,78.69c5.88,5.68,15.25,5.51,20.92-.36,5.54-5.73,5.54-14.83,0-20.56l-78.69-78.69c40.31-51.89,30.93-126.64-20.97-166.96C140.09-15.29,65.34-5.9,25.03,46-15.29,97.89-5.9,172.64,46,212.95c20.89,16.23,46.6,25.03,73.05,25.02h0ZM55.82,55.78c34.92-34.92,91.54-34.92,126.46,0,34.92,34.92,34.92,91.54,0,126.46-34.92,34.92-91.54,34.92-126.46,0h0c-34.92-34.67-35.13-91.08-.46-126,.15-.15.31-.31.46-.46h0Z"/>
  </g>
</svg>