<?xml version="1.0" encoding="UTF-8"?>
<svg id="Layer_2" data-name="Layer 2" xmlns="http://www.w3.org/2000/svg" viewBox="0 0 299.75 299.75">
  <defs>
    <style>
      .cls-1 {
        fill: #053f5c;
      }
    </style>
  </defs>
  <g id="Layer_1-2" data-name="Layer 1">
    <path class="cls-1" d="M149.88,299.75c-40.03,0-77.67-15.59-105.98-43.9C15.59,227.55,0,189.91,0,149.88S15.59,72.21,43.9,43.9C72.21,15.59,109.84,0,149.88,0s77.67,15.59,105.98,43.9c28.31,28.31,43.9,65.95,43.9,105.98s-15.59,77.67-43.9,105.98c-28.31,28.31-65.95,43.9-105.98,43.9ZM68.3,249.14c22.95,18.89,51.88,29.28,81.58,29.28s58.63-10.39,81.58-29.29c-2.32-17.87-10.61-34.71-23.41-47.51-15.54-15.54-36.2-24.1-58.17-24.1-41.41,0-76.29,30.71-81.58,71.61ZM188.89,163.77c12.8,5.19,24.31,12.84,34.24,22.77,12.42,12.41,21.46,27.76,26.3,44.56,18.72-22.91,28.99-51.61,28.99-81.23,0-70.88-57.67-128.55-128.55-128.55S21.33,79,21.33,149.88c0,29.62,10.26,58.31,28.98,81.22,5.17-18.01,15.13-34.23,28.97-47.12,9.3-8.67,19.92-15.45,31.6-20.18-15.88-12.15-25.25-30.96-25.25-51.03,0-35.42,28.82-64.24,64.24-64.24s64.24,28.82,64.24,64.24c0,20.06-9.36,38.86-25.23,51.01ZM149.88,69.85c-23.66,0-42.91,19.25-42.91,42.91s19.25,42.91,42.91,42.91,42.91-19.25,42.91-42.91-19.25-42.91-42.91-42.91Z"/>
  </g>
</svg>