<?xml version="1.0" encoding="UTF-8"?>
<svg id="Layer_2" data-name="Layer 2" xmlns="http://www.w3.org/2000/svg" viewBox="0 0 250.34 295.75">
  <defs>
    <style>
      .cls-1 {
        fill: #053f5c;
        fill-rule: evenodd;
      }
    </style>
  </defs>
  <g id="Layer_1-2" data-name="Layer 1">
    <g id="ngicon">
      <path class="cls-1" d="M56.78,72.14h-19.17c-13.24,0-24.24,10.24-25.18,23.45L.06,268.71c-.5,6.99,1.93,13.87,6.7,19,4.78,5.13,11.47,8.04,18.48,8.04h199.84c7.01,0,13.7-2.91,18.48-8.04,4.78-5.13,7.2-12.01,6.7-19l-12.36-173.12c-.95-13.22-11.94-23.45-25.18-23.45h-19.03v-3.61C193.7,30.68,163.02,0,125.17,0S55,29.04,56.64,68.53c.05,1.2.09,2.4.14,3.61h0ZM193.7,93.78v54.1c0,5.97-4.85,10.82-10.82,10.82s-10.82-4.85-10.82-10.82v-54.1h-93.78v54.1c0,5.97-4.85,10.82-10.82,10.82s-10.82-4.85-10.82-10.82c0,0,.94-25.28.63-54.1h-19.66c-1.89,0-3.46,1.46-3.59,3.35l-12.37,173.12c-.07,1,.27,1.98.96,2.72.69.73,1.64,1.15,2.64,1.15h199.84c1,0,1.95-.42,2.64-1.15.69-.74,1.03-1.72.96-2.72l-12.37-173.12c-.13-1.88-1.7-3.35-3.59-3.35h-19.03ZM172.06,72.14v-3.61c0-25.9-20.99-46.89-46.89-46.89s-46.89,20.99-46.89,46.89v3.61h93.78Z"/>
    </g>
  </g>
</svg>