<?xml version="1.0" encoding="UTF-8"?>
<svg id="Layer_2" data-name="Layer 2" xmlns="http://www.w3.org/2000/svg" viewBox="0 0 310.4 310.4">
  <defs>
    <style>
      .cls-1 {
        fill: #053f5c;
      }
    </style>
  </defs>
  <g id="Layer_1-2" data-name="Layer 1">
    <path class="cls-1" d="M223.29,163.67c-6.87,6.87-40.34,40.34-47.8,47.8-4.74,4.74-12.41,4.73-17.15,0-4.74-4.74-4.74-12.41,0-17.15l26.99-26.99h-89.96c-6.7,0-12.13-5.43-12.13-12.13s5.43-12.13,12.13-12.13h89.96l-26.99-26.99c-4.74-4.74-4.74-12.41,0-17.15,4.74-4.73,12.41-4.74,17.15,0,6.59,6.59,41.34,41.34,47.79,47.79,4.63,4.74,4.59,12.26.01,16.95ZM310.4,89.95v130.5c0,41.46-28.11,62.51-29.94,65.09-16.03,16.03-37.34,24.86-60.02,24.86H89.95c-22.67,0-43.99-8.83-60.02-24.86-1.8-2.55-29.94-23.63-29.94-65.09V89.95C0,48.5,28.11,27.44,29.94,24.86,45.97,8.83,67.28,0,89.95,0h130.5c22.67,0,43.99,8.83,60.02,24.86,1.8,2.55,29.94,23.63,29.94,65.09h0ZM286.15,89.95c0-30.38-20.99-45.38-22.83-47.94h0c-11.45-11.45-26.67-17.76-42.87-17.76H89.95c-16.19,0-31.42,6.31-42.87,17.76-1.91,2.66-22.83,17.4-22.83,47.94v130.5c0,30.38,20.99,45.38,22.83,47.94,11.45,11.45,26.67,17.76,42.87,17.76h130.5c16.19,0,31.42-6.31,42.87-17.76,1.91-2.66,22.83-17.4,22.83-47.94V89.95Z"/>
  </g>
</svg>